<?xml version="1.0" encoding="UTF-8"?><svg id="uuid-793db0f1-8ed3-4afe-a8e3-1fe6814fdae6" xmlns="http://www.w3.org/2000/svg" viewBox="0 0 184.94 64.09"><defs><style>.uuid-d8623423-85c6-4ca7-bd63-3b03084a7fb9{fill:#75c5c1;}.uuid-8ffc9ce3-069c-4d64-ac0e-5076e07649c2{fill:#0f455e;}.uuid-c75d7b79-4e97-493a-abcb-8d4c49227458{fill:none;stroke:#75c5c1;stroke-miterlimit:4;stroke-width:.76px;}</style></defs><path class="uuid-8ffc9ce3-069c-4d64-ac0e-5076e07649c2" d="M127.7,42.91l1.22,3.66h-2.43l1.21-3.66ZM128.77,41.53h-2.1l-3.07,8.4h1.79l.7-2.05h3.22l.7,2.05h1.82l-3.06-8.4ZM118.93,46.25l2.25,3.68h1.97l-2.72-4.18-1.5.51ZM117.63,45.37v-2.44h1.77c.49,0,.86.1,1.1.3.24.2.36.51.36.92s-.12.72-.36.92c-.24.2-.61.3-1.1.3h-1.77ZM115.9,41.53v8.4h1.73v-3.22h1.81l.18-.1c.94,0,1.68-.22,2.23-.66s.81-1.07.81-1.89c0-.77-.27-1.39-.81-1.84s-1.29-.69-2.24-.69h-3.7ZM111.3,43.17c.33.22.58.55.76.98.17.43.26.96.26,1.58s-.09,1.14-.26,1.58c-.17.43-.43.76-.76.98-.33.22-.73.33-1.2.33s-.87-.11-1.2-.33c-.34-.22-.59-.55-.76-.98-.17-.43-.26-.96-.26-1.58s.09-1.14.26-1.58c.17-.43.43-.76.76-.98.34-.22.74-.33,1.2-.33s.87.11,1.2.33M107.94,41.92c-.61.35-1.07.84-1.4,1.49-.33.64-.49,1.42-.49,2.32s.16,1.67.49,2.32c.33.64.79,1.14,1.4,1.49.61.35,1.32.52,2.16.52s1.55-.17,2.15-.52c.6-.35,1.07-.84,1.39-1.49.33-.64.49-1.42.49-2.32s-.16-1.67-.49-2.32c-.33-.64-.79-1.14-1.39-1.49-.6-.35-1.32-.52-2.15-.52s-1.55.17-2.16.52M100.01,45.56v-2.65h1.5c.52,0,.92.11,1.18.33.26.22.4.55.4.99s-.13.76-.4.99c-.26.22-.66.34-1.18.34h-1.5ZM98.26,41.53v8.4h1.76v-2.98h1.77c.64,0,1.19-.11,1.65-.32.46-.22.81-.53,1.06-.93.25-.4.38-.89.38-1.46s-.12-1.05-.38-1.46-.6-.71-1.06-.93c-.46-.22-1.01-.32-1.65-.32h-3.52ZM91.28,41.75c-.51.23-.9.55-1.18.95-.27.4-.41.85-.41,1.35,0,.42.09.77.27,1.08.18.3.45.55.8.74.35.19.77.35,1.27.46l1.7.38c.4.09.67.21.82.36.15.16.22.35.22.57s-.06.39-.18.54c-.12.15-.31.26-.55.34-.24.08-.54.12-.88.12-.41,0-.8-.06-1.16-.18-.37-.12-.7-.29-.99-.5-.29-.21-.53-.45-.72-.72l-.99,1.18c.25.32.57.61.95.85.38.25.82.44,1.3.58.49.14,1.02.21,1.61.21.67,0,1.26-.1,1.78-.31.52-.21.92-.51,1.21-.9.29-.39.43-.87.43-1.42,0-.58-.18-1.06-.54-1.43-.36-.37-.96-.65-1.79-.83l-1.57-.36c-.43-.1-.74-.23-.92-.39-.18-.16-.27-.35-.27-.58,0-.19.05-.36.16-.51.11-.15.28-.28.51-.37.23-.09.53-.14.88-.14.54,0,1.02.1,1.43.31.41.21.79.53,1.14.97l.98-1.13c-.41-.52-.9-.91-1.48-1.17s-1.25-.39-2.01-.39c-.72,0-1.34.12-1.85.35M84.75,42.91l1.22,3.66h-2.43l1.21-3.66ZM85.82,41.53h-2.1l-3.06,8.4h1.79l.7-2.05h3.22l.7,2.05h1.82l-3.06-8.4ZM77.65,49.92h1.75v-8.4h-1.75v8.4ZM70.26,48.52v-5.6h1.4c.8,0,1.4.24,1.8.72s.6,1.17.6,2.08-.2,1.6-.6,2.08-1,.72-1.8.72h-1.4ZM68.51,41.53v8.4h3.24c1.32,0,2.33-.36,3.05-1.09s1.08-1.76,1.08-3.1-.36-2.39-1.08-3.11c-.72-.73-1.74-1.09-3.05-1.09h-3.24Z"/><path class="uuid-8ffc9ce3-069c-4d64-ac0e-5076e07649c2" d="M177.92,34.66v-3.38c0-.54.1-.97.3-1.3.2-.32.45-.56.76-.7.31-.14.61-.22.92-.22.44,0,.81.14,1.11.41.3.28.45.77.45,1.47v3.71h1.02v-4.07c0-.55-.11-1.01-.34-1.36-.23-.36-.52-.62-.9-.8-.37-.17-.79-.26-1.25-.26-.32,0-.63.05-.93.14-.3.09-.57.24-.79.45-.23.21-.41.48-.55.82l.16.14-.09-1.42h-.89v6.36h1.02ZM173.35,34.62c.34-.11.63-.28.88-.49.25-.21.46-.46.62-.75l-.8-.47c-.18.3-.41.55-.71.73-.29.18-.67.27-1.14.27-.43,0-.8-.09-1.11-.29-.31-.19-.55-.47-.72-.83-.17-.36-.25-.8-.25-1.3s.08-.94.25-1.3c.16-.36.4-.64.7-.83s.66-.29,1.07-.29c.54,0,.98.17,1.32.5.33.33.5.8.5,1.41l.52-.1h-4.69v.9h5.14c.02-.09.03-.2.04-.32,0-.12.01-.25.01-.39,0-.54-.11-1.03-.33-1.47-.22-.44-.54-.78-.96-1.04-.42-.25-.93-.38-1.52-.38s-1.11.13-1.57.4c-.46.26-.82.64-1.08,1.14-.26.5-.39,1.09-.39,1.77s.13,1.28.39,1.78c.26.5.63.88,1.1,1.14.47.26,1.01.39,1.61.39.42,0,.79-.06,1.13-.17M162.71,34.66v-3.37c0-.54.1-.98.3-1.3.2-.33.45-.56.76-.71.3-.14.61-.22.92-.22.44,0,.81.14,1.11.41.3.28.45.77.45,1.47v3.71h1.02v-4.07c0-.55-.11-1.01-.34-1.36-.22-.36-.52-.62-.9-.8-.37-.17-.79-.26-1.25-.26-.43,0-.83.09-1.2.26-.36.17-.66.45-.88.83v-3.88h-1.02v9.28h1.02ZM155.61,28.57c-.47.26-.83.64-1.09,1.14-.26.5-.39,1.09-.39,1.77s.13,1.28.39,1.78c.26.5.63.88,1.09,1.14.47.26,1,.39,1.59.39.45,0,.85-.07,1.2-.22.35-.15.65-.36.9-.64.25-.28.45-.61.59-1.01l-.94-.33c-.06.28-.17.52-.32.71-.16.2-.36.34-.6.45-.24.1-.53.15-.86.15-.42,0-.79-.09-1.09-.29-.3-.19-.54-.47-.7-.83-.16-.36-.24-.8-.24-1.3s.08-.94.24-1.3c.16-.36.39-.64.7-.83.31-.19.67-.29,1.09-.29s.8.11,1.08.32c.27.22.48.53.62.93l.97-.46c-.15-.35-.35-.65-.6-.9-.25-.25-.54-.45-.87-.58-.34-.14-.72-.2-1.16-.2-.59,0-1.12.13-1.59.4M151.48,34.55c.38-.16.68-.39.89-.69.21-.3.32-.65.32-1.05s-.12-.72-.36-.99c-.24-.27-.65-.47-1.25-.58l-1.59-.33c-.35-.07-.59-.18-.71-.34-.13-.16-.19-.33-.19-.52s.06-.35.17-.5c.12-.15.28-.26.5-.35.22-.09.48-.13.78-.13.35,0,.68.09,1,.26.32.17.56.45.7.82l.85-.56c-.21-.45-.53-.8-.97-1.04-.43-.25-.96-.37-1.59-.37-.5,0-.94.09-1.3.26-.37.17-.65.41-.85.69-.2.29-.3.61-.3.95,0,.44.13.81.4,1.11.27.3.71.51,1.33.64l1.53.32c.32.07.54.18.65.32.11.15.17.31.17.49,0,.28-.13.51-.38.68-.25.17-.61.26-1.06.26-.51,0-.94-.11-1.3-.33-.36-.22-.63-.53-.82-.91l-.86.62c.28.48.68.86,1.2,1.12.52.26,1.09.39,1.71.39.5,0,.94-.08,1.32-.24M144.48,34.66h1.02v-6.36h-1.02v6.36ZM145.54,26.87c.14-.14.21-.33.21-.55s-.07-.41-.21-.55c-.14-.14-.32-.21-.55-.21s-.41.07-.55.21c-.14.14-.21.32-.21.55s.07.41.21.55.32.21.55.21.41-.07.55-.21M137.62,33.24c-.35-.44-.52-1.03-.52-1.76s.18-1.31.53-1.76c.36-.44.86-.66,1.5-.66.39,0,.73.09,1.02.28.29.19.52.45.69.8.16.35.25.76.25,1.25,0,.51-.08.95-.25,1.33-.17.38-.4.67-.7.87-.3.2-.65.3-1.06.3-.63,0-1.12-.22-1.46-.66M140.02,34.58c.33-.14.6-.33.83-.59.22-.26.37-.58.43-.95l-.14.08.09,1.54h.89v-9.28h-1.02v4.38l.13-.09c-.13-.45-.38-.81-.77-1.08-.39-.27-.84-.41-1.37-.41s-1.02.13-1.47.39c-.46.26-.83.63-1.11,1.13-.28.49-.42,1.09-.42,1.79s.13,1.28.39,1.78c.26.5.62.88,1.06,1.14.44.26.92.39,1.45.39.36,0,.71-.07,1.04-.2M132.08,26.13c-.14.13-.2.31-.2.53s.07.39.2.52c.14.14.31.2.52.2s.4-.07.53-.2c.13-.14.2-.31.2-.52s-.07-.4-.2-.53c-.13-.13-.31-.2-.53-.2s-.39.07-.52.2M129.61,26.13c-.14.13-.2.31-.2.53s.07.39.2.52c.13.14.31.2.52.2s.4-.07.53-.2c.13-.14.2-.31.2-.52s-.07-.4-.2-.53c-.13-.13-.31-.2-.53-.2s-.39.07-.52.2M132.29,34.53c.38-.17.68-.45.9-.83l.06.97h.89v-6.36h-1.02v3.46c0,.37-.05.7-.16.97-.11.27-.25.49-.43.67-.18.17-.39.3-.62.38-.23.08-.46.12-.7.12-.51,0-.9-.12-1.18-.36-.28-.24-.42-.68-.42-1.33v-3.9h-1.02v4.17c0,.55.11,1,.34,1.34.22.34.52.59.88.74.36.15.74.23,1.15.23.51,0,.95-.09,1.33-.26M125.27,28.3v6.91c0,.44-.09.75-.26.93-.17.18-.4.27-.67.27-.22,0-.42-.04-.6-.11-.18-.08-.33-.17-.44-.28l-.22.97c.14.12.33.22.55.3.22.08.46.12.72.12.29,0,.58-.06.88-.19s.55-.34.75-.65c.2-.3.3-.72.3-1.25v-7.01h-1.02ZM126.34,26.87c.14-.14.21-.33.21-.55s-.07-.41-.21-.55c-.14-.14-.32-.21-.55-.21s-.41.07-.55.21c-.14.14-.21.32-.21.55s.07.41.21.55.32.21.55.21.41-.07.55-.21M118.75,31.86h4.2v-1.06h-4.2v1.06ZM111.93,34.66v-3.37c0-.54.1-.98.3-1.3.2-.33.45-.56.76-.71.31-.14.61-.22.92-.22.44,0,.81.14,1.11.41.3.28.45.77.45,1.47v3.71h1.02v-4.07c0-.55-.11-1.01-.34-1.36-.23-.36-.52-.62-.9-.8-.37-.17-.79-.26-1.25-.26-.43,0-.83.09-1.2.26-.36.17-.66.45-.88.83v-3.88h-1.02v9.28h1.02ZM104.83,28.57c-.47.26-.83.64-1.09,1.14-.26.5-.39,1.09-.39,1.77s.13,1.28.39,1.78c.26.5.63.88,1.09,1.14.47.26,1,.39,1.59.39.45,0,.85-.07,1.2-.22s.65-.36.9-.64c.25-.28.45-.61.59-1.01l-.94-.33c-.06.28-.17.52-.32.71-.16.2-.36.34-.6.45-.24.1-.53.15-.86.15-.42,0-.79-.09-1.09-.29-.3-.19-.54-.47-.7-.83-.16-.36-.24-.8-.24-1.3s.08-.94.24-1.3c.16-.36.4-.64.7-.83s.67-.29,1.09-.29.8.11,1.08.32c.27.22.48.53.62.93l.97-.46c-.15-.35-.35-.65-.6-.9-.25-.25-.54-.45-.87-.58-.33-.14-.72-.2-1.16-.2-.59,0-1.12.13-1.59.4M100.7,34.55c.38-.16.68-.39.89-.69.21-.3.32-.65.32-1.05s-.12-.72-.36-.99c-.24-.27-.65-.47-1.25-.58l-1.59-.33c-.35-.07-.58-.18-.71-.34-.13-.16-.19-.33-.19-.52s.06-.35.17-.5c.12-.15.28-.26.5-.35s.48-.13.78-.13c.35,0,.68.09,1.01.26.32.17.56.45.7.82l.85-.56c-.21-.45-.53-.8-.97-1.04-.43-.25-.96-.37-1.59-.37-.5,0-.93.09-1.3.26-.37.17-.65.41-.85.69-.2.29-.3.61-.3.95,0,.44.13.81.4,1.11s.71.51,1.33.64l1.53.32c.32.07.54.18.65.32.11.15.17.31.17.49,0,.28-.13.51-.38.68-.26.17-.61.26-1.06.26-.51,0-.94-.11-1.3-.33-.36-.22-.63-.53-.82-.91l-.86.62c.28.48.68.86,1.2,1.12.52.26,1.09.39,1.71.39.5,0,.94-.08,1.32-.24M90.97,29.18h4.6v-.88h-4.6v.88ZM92.24,26.77v6.31c0,.41.1.74.26.99s.39.43.67.55c.28.11.58.17.9.17.35,0,.65-.05.92-.15.27-.1.5-.24.69-.42l-.36-.85c-.14.14-.31.26-.48.34-.18.08-.39.13-.64.13-.28,0-.51-.08-.69-.23-.18-.15-.27-.39-.27-.7v-6.41l-1.02.28ZM87.54,34.53c.38-.17.68-.45.9-.83l.06.97h.89v-6.36h-1.02v3.46c0,.37-.05.7-.16.97-.11.27-.25.49-.43.67-.18.17-.39.3-.62.38-.23.08-.46.12-.7.12-.51,0-.9-.12-1.18-.36-.28-.24-.42-.68-.42-1.33v-3.9h-1.02v4.17c0,.55.11,1,.34,1.34.22.34.52.59.88.74.36.15.74.23,1.15.23.51,0,.95-.09,1.33-.26M80.36,34.62c.34-.11.63-.28.88-.49.25-.21.45-.46.62-.75l-.8-.47c-.18.3-.41.55-.71.73-.29.18-.67.27-1.14.27-.43,0-.8-.09-1.11-.29-.31-.19-.55-.47-.72-.83-.17-.36-.25-.8-.25-1.3s.08-.94.25-1.3c.17-.36.4-.64.7-.83.3-.19.66-.29,1.07-.29.54,0,.98.17,1.32.5s.5.8.5,1.41l.52-.1h-4.69v.9h5.14c.02-.09.03-.2.04-.32,0-.12.01-.25.01-.39,0-.54-.11-1.03-.33-1.47-.22-.44-.54-.78-.96-1.04-.42-.25-.93-.38-1.52-.38s-1.11.13-1.57.4-.82.64-1.08,1.14c-.26.5-.39,1.09-.39,1.77s.13,1.28.39,1.78c.26.5.63.88,1.1,1.14.47.26,1.01.39,1.61.39.42,0,.79-.06,1.13-.17M69.72,33.24c-.35-.44-.52-1.03-.52-1.76s.18-1.31.53-1.76c.36-.44.86-.66,1.5-.66.39,0,.73.09,1.02.28.29.19.52.45.69.8.16.35.25.76.25,1.25,0,.51-.08.95-.25,1.33-.17.38-.4.67-.7.87-.3.2-.65.3-1.06.3-.63,0-1.12-.22-1.46-.66M72.11,34.58c.33-.14.6-.33.83-.59.22-.26.37-.58.43-.95l-.14.08.09,1.54h.89v-9.28h-1.02v4.38l.13-.09c-.13-.45-.38-.81-.77-1.08-.39-.27-.84-.41-1.37-.41s-1.02.13-1.48.39c-.46.26-.83.63-1.11,1.13-.28.49-.42,1.09-.42,1.79s.13,1.28.39,1.78c.26.5.61.88,1.06,1.14s.93.39,1.45.39c.37,0,.71-.07,1.04-.2"/><path class="uuid-8ffc9ce3-069c-4d64-ac0e-5076e07649c2" d="M174.31,19.4v-3.43c0-.47.09-.87.27-1.18.18-.31.4-.54.67-.69.27-.15.53-.23.79-.23.2,0,.36,0,.47.03.11.02.21.04.31.08l.18-.93c-.09-.05-.21-.08-.34-.1-.13-.02-.25-.03-.36-.03-.49,0-.91.1-1.25.29-.34.2-.6.49-.78.88l-.14-1.04h-.83v6.36h1.02ZM169.73,19.35c.33-.11.63-.28.88-.49s.46-.46.62-.75l-.8-.47c-.18.3-.41.55-.71.73-.29.18-.67.27-1.14.27-.43,0-.8-.09-1.11-.29-.31-.19-.55-.47-.72-.83-.17-.36-.26-.8-.26-1.3s.08-.94.25-1.3c.17-.36.4-.64.7-.83s.66-.29,1.07-.29c.54,0,.98.17,1.32.5.34.33.5.8.5,1.41l.52-.1h-4.69v.9h5.14c.02-.09.03-.2.04-.32,0-.12.01-.25.01-.39,0-.54-.11-1.03-.33-1.47-.22-.44-.54-.78-.96-1.04-.42-.25-.93-.38-1.52-.38s-1.11.13-1.56.4c-.46.26-.82.64-1.08,1.14-.26.5-.39,1.09-.39,1.77s.13,1.28.39,1.78c.26.5.63.88,1.1,1.14.47.26,1.01.39,1.61.39.41,0,.79-.06,1.12-.17M159.09,17.97c-.35-.44-.52-1.03-.52-1.76s.18-1.31.53-1.76c.36-.44.86-.66,1.5-.66.39,0,.73.09,1.02.28.29.19.52.45.69.8.17.35.25.76.25,1.25,0,.51-.08.95-.25,1.33-.17.38-.4.67-.7.87-.3.2-.65.3-1.06.3-.63,0-1.12-.22-1.46-.66M161.49,19.32c.33-.14.6-.33.83-.59.23-.26.37-.58.43-.95l-.14.08.09,1.54h.89v-9.28h-1.02v4.38l.13-.09c-.13-.45-.38-.81-.77-1.08-.39-.27-.84-.41-1.37-.41s-1.02.13-1.48.39c-.46.26-.83.63-1.11,1.13-.28.49-.42,1.09-.42,1.79s.13,1.28.39,1.78c.26.5.61.88,1.06,1.14.44.26.92.39,1.45.39.36,0,.71-.07,1.04-.2M150.99,19.12c.46-1.01.69-2.1.69-3.3s-.23-2.3-.69-3.31c-.46-1.01-1.14-1.9-2.04-2.67l-.58.59c.56.51,1.01,1.04,1.34,1.61.33.56.57,1.16.71,1.78.14.62.22,1.29.22,2s-.07,1.37-.22,2c-.14.63-.38,1.22-.71,1.78-.33.56-.78,1.1-1.34,1.62l.58.58c.9-.78,1.58-1.67,2.04-2.68M142.83,19.4v-3.38c0-.54.1-.97.3-1.3.2-.32.45-.56.76-.7.31-.14.61-.22.92-.22.44,0,.81.14,1.11.41.3.28.45.77.45,1.47v3.71h1.02v-4.07c0-.55-.11-1.01-.34-1.36-.23-.36-.52-.62-.9-.8-.37-.17-.79-.26-1.25-.26-.32,0-.63.05-.93.14-.3.09-.57.24-.79.45-.23.21-.41.48-.55.82l.17.14-.09-1.42h-.89v6.36h1.02ZM138.08,12.52c-.46,1.01-.69,2.11-.69,3.31s.23,2.3.69,3.3c.46,1.01,1.14,1.9,2.04,2.68l.59-.58c-.56-.52-1.01-1.06-1.34-1.62-.33-.56-.57-1.15-.71-1.78-.14-.63-.22-1.29-.22-2s.07-1.38.22-2c.14-.62.38-1.22.71-1.78.33-.56.78-1.1,1.34-1.61l-.59-.59c-.9.77-1.58,1.66-2.04,2.67M134.25,19.35c.33-.11.63-.28.88-.49s.46-.46.62-.75l-.8-.47c-.18.3-.41.55-.71.73-.29.18-.67.27-1.14.27-.43,0-.8-.09-1.11-.29-.31-.19-.55-.47-.72-.83-.17-.36-.25-.8-.25-1.3s.08-.94.25-1.3c.17-.36.4-.64.7-.83.3-.19.66-.29,1.07-.29.54,0,.98.17,1.32.5.34.33.5.8.5,1.41l.52-.1h-4.69v.9h5.14c.02-.09.03-.2.04-.32,0-.12.01-.25.01-.39,0-.54-.11-1.03-.33-1.47-.22-.44-.54-.78-.96-1.04-.42-.25-.93-.38-1.52-.38s-1.11.13-1.56.4-.82.64-1.08,1.14c-.26.5-.39,1.09-.39,1.77s.13,1.28.39,1.78c.26.5.63.88,1.1,1.14.47.26,1.01.39,1.61.39.41,0,.79-.06,1.13-.17M124.35,13.91h4.6v-.88h-4.6v.88ZM125.62,11.51v6.31c0,.41.1.74.26.99.17.25.39.43.67.55.28.11.58.17.9.17.35,0,.65-.05.92-.15.27-.1.5-.24.69-.42l-.36-.85c-.14.14-.31.26-.48.34-.18.08-.39.13-.64.13-.28,0-.51-.08-.69-.23-.18-.15-.27-.39-.27-.7v-6.41l-1.02.28ZM118.37,19.4v-3.37c0-.54.1-.98.3-1.3.2-.33.45-.56.76-.71s.61-.22.92-.22c.44,0,.81.14,1.11.41.3.28.45.77.45,1.47v3.71h1.02v-4.07c0-.55-.11-1.01-.34-1.36-.22-.36-.52-.62-.9-.8-.37-.17-.79-.26-1.25-.26-.43,0-.83.09-1.2.26-.36.17-.66.45-.88.83v-3.88h-1.02v9.28h1.02ZM111.27,13.3c-.47.26-.83.64-1.09,1.14-.26.5-.39,1.09-.39,1.77s.13,1.28.39,1.78c.26.5.63.88,1.09,1.14s1,.39,1.59.39c.45,0,.85-.07,1.2-.22.35-.15.65-.36.9-.64.25-.28.45-.61.59-1.01l-.94-.33c-.06.28-.17.52-.32.71-.16.2-.36.34-.6.45-.24.1-.53.15-.86.15-.43,0-.79-.09-1.09-.29-.31-.19-.54-.47-.7-.83-.16-.36-.24-.8-.24-1.3s.08-.94.24-1.3c.16-.36.39-.64.7-.83.31-.19.67-.29,1.09-.29s.8.11,1.07.32c.28.22.48.53.62.93l.97-.46c-.15-.35-.35-.65-.6-.9-.25-.25-.54-.45-.87-.59-.34-.14-.72-.2-1.16-.2-.59,0-1.12.13-1.59.4M106.84,19.4h1.02v-6.36h-1.02v6.36ZM107.91,11.61c.14-.14.21-.33.21-.55s-.07-.41-.21-.55c-.14-.14-.32-.21-.55-.21s-.41.07-.55.21c-.14.14-.21.32-.21.55s.07.41.21.55c.14.14.32.21.55.21s.41-.07.55-.21M99.99,19.4v-3.37c0-.54.1-.98.3-1.3s.45-.56.76-.71c.3-.14.61-.22.92-.22.44,0,.81.14,1.11.41.3.28.45.77.45,1.47v3.71h1.02v-4.07c0-.55-.11-1.01-.34-1.36-.22-.36-.52-.62-.9-.8-.37-.17-.79-.26-1.25-.26-.43,0-.83.09-1.2.26-.36.17-.66.45-.88.83v-3.88h-1.02v9.28h1.02ZM92.89,13.3c-.47.26-.83.64-1.09,1.14-.26.5-.39,1.09-.39,1.77s.13,1.28.39,1.78c.26.5.63.88,1.09,1.14.47.26,1,.39,1.59.39.45,0,.85-.07,1.2-.22.35-.15.65-.36.9-.64.25-.28.45-.61.59-1.01l-.94-.33c-.06.28-.17.52-.32.71-.16.2-.36.34-.6.45-.24.1-.53.15-.86.15-.42,0-.79-.09-1.09-.29-.31-.19-.54-.47-.7-.83-.16-.36-.24-.8-.24-1.3s.08-.94.24-1.3c.16-.36.39-.64.7-.83.31-.19.67-.29,1.09-.29s.8.11,1.07.32c.28.22.48.53.62.93l.97-.46c-.15-.35-.35-.65-.6-.9-.25-.25-.54-.45-.87-.59-.33-.14-.72-.2-1.16-.2-.59,0-1.12.13-1.59.4M88.76,19.28c.38-.16.68-.39.89-.69.21-.3.32-.65.32-1.05s-.12-.72-.36-.99c-.24-.27-.65-.47-1.25-.59l-1.59-.33c-.35-.07-.58-.18-.71-.34-.13-.16-.19-.33-.19-.52s.06-.35.17-.5c.12-.15.28-.26.5-.35.22-.09.48-.13.78-.13.35,0,.68.09,1.01.26.32.17.56.45.7.82l.85-.56c-.21-.45-.53-.8-.97-1.04-.43-.25-.96-.37-1.59-.37-.5,0-.93.09-1.3.26-.37.17-.65.41-.85.69-.2.29-.3.61-.3.95,0,.44.13.81.4,1.11.27.3.71.51,1.33.64l1.53.32c.32.07.54.18.65.32.12.15.17.31.17.49,0,.28-.13.51-.38.68-.25.17-.61.26-1.06.26-.51,0-.94-.11-1.3-.33-.36-.22-.63-.53-.82-.91l-.86.62c.28.48.68.86,1.2,1.12.52.26,1.09.39,1.71.39.5,0,.94-.08,1.32-.24M81.59,19.35c.33-.11.63-.28.88-.49s.46-.46.62-.75l-.8-.47c-.18.3-.41.55-.71.73-.29.18-.67.27-1.14.27-.43,0-.8-.09-1.11-.29-.31-.19-.55-.47-.72-.83-.17-.36-.25-.8-.25-1.3s.08-.94.25-1.3c.17-.36.4-.64.7-.83s.66-.29,1.07-.29c.54,0,.98.17,1.32.5s.5.8.5,1.41l.52-.1h-4.69v.9h5.14c.02-.09.03-.2.04-.32,0-.12.01-.25.01-.39,0-.54-.11-1.03-.33-1.47-.22-.44-.54-.78-.96-1.04-.42-.25-.93-.38-1.52-.38s-1.11.13-1.56.4-.82.64-1.08,1.14c-.26.5-.4,1.09-.4,1.77s.13,1.28.4,1.78c.26.5.63.88,1.1,1.14s1.01.39,1.61.39c.42,0,.79-.06,1.13-.17M73.94,19.09c.47-.29.82-.7,1.04-1.22l-.22-.04.05,1.56h.8v-4.23h-3.6v.95h2.67v.29c0,.37-.06.68-.19.95-.13.27-.3.5-.53.67-.22.18-.49.31-.79.4-.3.09-.62.13-.97.13-.62,0-1.14-.13-1.57-.4-.43-.27-.75-.65-.97-1.16-.22-.5-.33-1.11-.33-1.81s.12-1.31.38-1.81c.25-.5.59-.89,1.03-1.16.44-.27.94-.4,1.51-.4s1.08.12,1.48.38c.4.25.7.62.88,1.1l.93-.51c-.32-.65-.74-1.14-1.26-1.45-.52-.31-1.2-.47-2.03-.47-.78,0-1.47.18-2.07.53-.6.35-1.07.85-1.41,1.5-.34.64-.5,1.41-.5,2.3s.16,1.66.48,2.3c.32.65.77,1.14,1.35,1.5.58.35,1.27.53,2.07.53.7,0,1.29-.14,1.77-.43"/><polygon class="uuid-d8623423-85c6-4ca7-bd63-3b03084a7fb9" points="35.95 5.93 35.25 7.77 47.67 12.49 47.45 22.08 43.58 26.55 35.01 16.15 33.49 17.41 42.27 28.06 37.61 33.46 37.64 33.49 22.99 31.28 25.05 15.02 23.1 14.77 22.08 22.76 9.32 15.27 8.32 16.97 21.81 24.88 21.05 30.94 12.04 31.05 7.18 22.72 5.48 23.71 9.77 31.08 2.5 31.17 2.53 33.14 21.22 32.91 21.2 33.01 37.27 35.43 41.23 45.27 25.51 38.81 24.77 40.63 42.26 47.82 45.08 54.82 38.66 61.25 40.18 62.43 46.36 56.39 57.97 58.7 58.36 56.77 47.08 54.52 41.35 40.28 57.43 30.86 56.43 29.16 40.61 38.43 39.12 34.73 49.31 22.93 49.4 22.94 49.4 22.83 49.52 22.7 49.41 22.6 49.53 17.49 64.54 3.39 64.39 2.71 63.45 1.71 49.59 14.72 49.8 5.34 47.83 5.3 47.72 10.39 35.95 5.93"/><polygon class="uuid-c75d7b79-4e97-493a-abcb-8d4c49227458" points="35.95 5.93 35.25 7.77 47.67 12.49 47.45 22.08 43.58 26.55 35.01 16.15 33.49 17.41 42.27 28.06 37.61 33.46 37.64 33.49 22.99 31.28 25.05 15.02 23.1 14.77 22.08 22.76 9.32 15.27 8.32 16.97 21.81 24.88 21.05 30.94 12.04 31.05 7.18 22.72 5.48 23.71 9.77 31.08 2.5 31.17 2.53 33.14 21.22 32.91 21.2 33.01 37.27 35.43 41.23 45.27 25.51 38.81 24.77 40.63 42.26 47.82 45.08 54.82 38.66 61.25 40.18 62.43 46.36 56.39 57.97 58.7 58.36 56.77 47.08 54.52 41.35 40.28 57.43 30.86 56.43 29.16 40.61 38.43 39.12 34.73 49.31 22.93 49.31 22.93 49.4 22.83 49.41 22.7 49.41 22.6 49.53 17.49 64.79 3.14 64.39 2.71 63.45 1.71 49.59 14.72 49.8 5.34 47.83 5.3 47.72 10.39 35.95 5.93"/></svg>