<?xml version="1.0" encoding="UTF-8"?><svg id="uuid-4bd4b5c6-f36a-44ae-9d81-09cdc1a44f5f" xmlns="http://www.w3.org/2000/svg" viewBox="0 0 184.94 64.09"><defs><style>.uuid-40dbce63-a311-41c3-ac8e-e6511a481664{fill:#75c5c1;}.uuid-9e321d7f-c7e1-4e34-a971-16d4c9a6dc68{fill:#0f455e;}.uuid-151e3f99-b5e1-4301-b039-37669a5d6c55{fill:none;stroke:#75c5c1;stroke-miterlimit:4;stroke-width:.76px;}</style></defs><polygon class="uuid-40dbce63-a311-41c3-ac8e-e6511a481664" points="35.95 5.93 35.25 7.77 47.67 12.49 47.45 22.08 43.58 26.55 35.01 16.15 33.49 17.41 42.27 28.06 37.61 33.46 37.64 33.49 22.99 31.28 25.05 15.02 23.1 14.77 22.08 22.76 9.32 15.27 8.32 16.97 21.81 24.88 21.05 30.94 12.04 31.05 7.18 22.72 5.48 23.71 9.77 31.08 2.5 31.17 2.53 33.14 21.22 32.91 21.2 33.01 37.27 35.43 41.23 45.27 25.51 38.81 24.77 40.63 42.26 47.82 45.08 54.82 38.66 61.25 40.18 62.43 46.36 56.39 57.97 58.7 58.36 56.77 47.08 54.52 41.35 40.28 57.43 30.86 56.43 29.16 40.61 38.43 39.12 34.73 49.31 22.93 49.4 22.94 49.4 22.83 49.52 22.7 49.41 22.6 49.53 17.49 64.54 3.39 64.39 2.71 63.45 1.71 49.59 14.72 49.8 5.34 47.83 5.3 47.72 10.39 35.95 5.93"/><polygon class="uuid-151e3f99-b5e1-4301-b039-37669a5d6c55" points="35.95 5.93 35.25 7.77 47.67 12.49 47.45 22.08 43.58 26.55 35.01 16.15 33.49 17.41 42.27 28.06 37.61 33.46 37.64 33.49 22.99 31.28 25.05 15.02 23.1 14.77 22.08 22.76 9.32 15.27 8.32 16.97 21.81 24.88 21.05 30.94 12.04 31.05 7.18 22.72 5.48 23.71 9.77 31.08 2.5 31.17 2.53 33.14 21.22 32.91 21.2 33.01 37.27 35.43 41.23 45.27 25.51 38.81 24.77 40.63 42.26 47.82 45.08 54.82 38.66 61.25 40.18 62.43 46.36 56.39 57.97 58.7 58.36 56.77 47.08 54.52 41.35 40.28 57.43 30.86 56.43 29.16 40.61 38.43 39.12 34.73 49.31 22.93 49.31 22.93 49.4 22.83 49.41 22.7 49.41 22.6 49.53 17.49 64.79 3.14 64.39 2.71 63.45 1.71 49.59 14.72 49.8 5.34 47.83 5.3 47.72 10.39 35.95 5.93"/><path class="uuid-9e321d7f-c7e1-4e34-a971-16d4c9a6dc68" d="M127.36,43.41l1.22,3.66h-2.43l1.21-3.66ZM128.43,42.02h-2.1l-3.07,8.4h1.79l.7-2.05h3.22l.7,2.05h1.82l-3.07-8.4ZM118.58,46.74l2.25,3.68h1.97l-2.72-4.18-1.5.51ZM117.29,45.87v-2.44h1.77c.49,0,.86.1,1.1.3s.36.51.36.92-.12.72-.36.92c-.24.2-.61.3-1.1.3h-1.77ZM115.56,42.02v8.4h1.73v-3.22h1.81l.18-.1c.94,0,1.68-.22,2.23-.66s.81-1.07.81-1.89c0-.77-.27-1.39-.81-1.84s-1.29-.69-2.24-.69h-3.7ZM110.95,43.67c.33.22.58.55.76.98.17.43.26.96.26,1.58s-.09,1.14-.26,1.58c-.17.43-.43.76-.76.98-.33.22-.73.33-1.2.33s-.87-.11-1.2-.33c-.34-.22-.59-.55-.76-.98-.17-.43-.26-.96-.26-1.58s.09-1.14.26-1.58c.17-.43.43-.76.76-.98.33-.22.74-.33,1.2-.33s.86.11,1.2.33M107.6,42.42c-.61.35-1.07.84-1.4,1.49-.33.64-.49,1.42-.49,2.32s.16,1.67.49,2.32c.33.64.79,1.14,1.4,1.49.61.35,1.32.52,2.16.52s1.55-.17,2.15-.52c.6-.35,1.07-.84,1.39-1.49.33-.64.49-1.42.49-2.32s-.16-1.67-.49-2.32c-.33-.64-.79-1.14-1.39-1.49-.6-.35-1.32-.52-2.15-.52s-1.55.17-2.16.52M99.67,46.06v-2.65h1.5c.53,0,.92.11,1.18.33.26.22.39.55.39.99s-.13.76-.39.99c-.26.22-.66.34-1.18.34h-1.5ZM97.91,42.02v8.4h1.76v-2.98h1.77c.64,0,1.2-.11,1.65-.32s.81-.53,1.06-.93c.25-.4.38-.89.38-1.46s-.12-1.05-.38-1.46-.6-.71-1.06-.93c-.46-.22-1.01-.32-1.65-.32h-3.52ZM90.94,42.25c-.51.23-.9.55-1.18.95-.27.4-.41.85-.41,1.35,0,.42.09.77.27,1.08.18.3.45.55.8.74.35.19.77.35,1.27.46l1.7.38c.4.09.67.21.82.36.15.16.22.35.22.57s-.06.39-.18.54c-.12.15-.31.26-.55.34-.24.08-.54.12-.88.12-.41,0-.79-.06-1.16-.18-.37-.12-.7-.29-.99-.5-.29-.21-.53-.45-.73-.72l-.99,1.18c.25.32.57.61.95.85.38.25.82.44,1.3.58.49.14,1.02.21,1.61.21.67,0,1.26-.1,1.78-.31.52-.21.92-.51,1.21-.9.29-.39.43-.87.43-1.42,0-.58-.18-1.06-.54-1.43-.36-.37-.96-.65-1.79-.83l-1.57-.36c-.43-.1-.74-.23-.92-.39-.18-.16-.27-.35-.27-.58,0-.19.05-.36.16-.51.11-.15.28-.28.51-.37.23-.09.53-.14.88-.14.54,0,1.02.1,1.43.31.41.21.79.53,1.14.97l.98-1.13c-.41-.52-.9-.91-1.48-1.17s-1.25-.39-2.01-.39c-.72,0-1.34.12-1.85.35M84.41,43.41l1.22,3.66h-2.43l1.21-3.66ZM85.48,42.02h-2.1l-3.07,8.4h1.79l.7-2.05h3.22l.7,2.05h1.82l-3.07-8.4ZM77.31,50.42h1.76v-8.4h-1.76v8.4ZM69.92,49.02v-5.6h1.4c.8,0,1.4.24,1.8.72.4.48.6,1.17.6,2.08s-.2,1.6-.6,2.08c-.4.48-1,.72-1.8.72h-1.4ZM68.16,42.02v8.4h3.24c1.32,0,2.33-.36,3.05-1.09.72-.73,1.08-1.76,1.08-3.1s-.36-2.39-1.08-3.11c-.72-.73-1.74-1.09-3.05-1.09h-3.24Z"/><path class="uuid-9e321d7f-c7e1-4e34-a971-16d4c9a6dc68" d="M159.69,35.16v-3.37c0-.54.1-.98.3-1.3.2-.33.45-.56.76-.71.31-.14.61-.22.92-.22.44,0,.81.14,1.11.41.3.28.45.77.45,1.47v3.71h1.02v-4.07c0-.55-.11-1.01-.34-1.36-.22-.36-.52-.62-.9-.8-.37-.17-.79-.26-1.25-.26-.43,0-.83.09-1.2.26-.36.17-.66.45-.88.83v-3.88h-1.02v9.28h1.02ZM155.58,35.04c.38-.16.68-.39.89-.69.21-.3.32-.65.32-1.05s-.12-.72-.36-.99c-.24-.27-.65-.47-1.25-.59l-1.59-.33c-.35-.07-.58-.18-.71-.34-.13-.16-.19-.33-.19-.52s.06-.35.17-.5c.11-.15.28-.26.5-.35s.48-.13.78-.13c.35,0,.68.09,1.01.26.32.17.55.45.7.82l.85-.56c-.21-.45-.53-.8-.97-1.04-.43-.25-.96-.37-1.59-.37-.5,0-.93.09-1.3.26-.37.17-.65.41-.85.69-.2.29-.3.61-.3.95,0,.44.13.81.4,1.11s.71.51,1.33.64l1.53.32c.32.07.54.18.65.32.11.15.17.31.17.49,0,.28-.13.51-.38.68-.26.17-.61.26-1.06.26-.51,0-.94-.11-1.3-.33-.36-.22-.63-.53-.82-.91l-.87.62c.28.48.68.86,1.2,1.12.52.26,1.09.39,1.71.39.5,0,.94-.08,1.32-.24M148.59,35.16h1.02v-6.36h-1.02v6.36ZM149.65,27.37c.14-.14.21-.33.21-.55s-.07-.41-.21-.55c-.14-.14-.32-.21-.55-.21s-.41.07-.55.21c-.14.14-.21.32-.21.55s.07.41.21.55c.14.14.33.21.55.21s.41-.07.55-.21M144.33,33.97l-1.73-5.18h-1.02l-1.73,5.18-1.6-5.18h-1.13l2.21,6.36h1.02l1.69-5.06,1.79,5.06h1.02l2.21-6.36h-1.13l-1.6,5.18ZM134.55,35.11c.33-.11.63-.28.88-.49s.46-.46.62-.75l-.8-.47c-.18.3-.41.55-.71.73-.29.18-.67.27-1.14.27-.43,0-.8-.09-1.11-.29-.31-.19-.55-.47-.72-.83-.17-.36-.26-.8-.26-1.3s.08-.94.25-1.3c.17-.36.4-.64.7-.83s.66-.29,1.07-.29c.54,0,.98.17,1.32.5.34.33.5.8.5,1.41l.52-.1h-4.69v.9h5.14c.02-.09.03-.2.04-.32,0-.12.01-.25.01-.39,0-.54-.11-1.03-.33-1.47-.22-.44-.54-.78-.96-1.04-.42-.25-.93-.38-1.52-.38s-1.11.13-1.57.4c-.46.26-.82.64-1.08,1.14-.26.5-.39,1.09-.39,1.77s.13,1.28.39,1.78c.26.5.63.88,1.1,1.14.47.26,1.01.39,1.61.39.42,0,.79-.06,1.12-.17M127.39,26.76v5.27c0,.75-.13,1.32-.39,1.71-.26.39-.76.59-1.48.59-.64,0-1.07-.18-1.29-.53s-.29-.89-.2-1.61l-.94.19c-.11.59-.09,1.1.07,1.53.16.44.44.77.85,1.01.41.24.92.36,1.55.36.89,0,1.59-.26,2.09-.79.5-.53.76-1.27.76-2.21v-5.52h-1.02ZM117.15,32.36h4.2v-1.06h-4.2v1.06ZM110.33,35.16v-3.38c0-.54.1-.97.3-1.3.2-.32.45-.56.76-.7s.61-.22.92-.22c.44,0,.81.14,1.11.41.3.28.45.77.45,1.47v3.71h1.02v-4.07c0-.55-.11-1.01-.34-1.36-.23-.36-.52-.62-.9-.8-.37-.17-.79-.26-1.25-.26-.32,0-.63.05-.93.14-.3.09-.57.24-.8.45-.23.21-.41.48-.55.82l.17.14-.09-1.42h-.89v6.36h1.02ZM105.83,32.8c0,.27-.05.51-.15.71-.1.2-.24.36-.42.5-.18.13-.38.23-.6.29-.22.06-.46.09-.71.09-.38,0-.68-.08-.88-.25-.21-.16-.31-.38-.31-.64s.1-.48.31-.64c.2-.15.51-.27.93-.36l2.05-.42v-.84l-2.52.5c-.57.11-1.01.32-1.33.63-.32.31-.48.7-.48,1.18,0,.38.09.7.29.96.19.26.45.45.77.58.32.13.67.19,1.04.19.3,0,.6-.05.9-.15.31-.1.58-.25.83-.46.25-.21.42-.48.52-.81l-.26-.04v.13c0,.29.06.53.17.72.11.19.26.33.46.43.2.09.42.14.66.14.27,0,.49-.04.66-.13l.05-.8c-.15.04-.31.06-.47.06-.32,0-.48-.15-.48-.46v-3.08c0-.5-.11-.91-.32-1.23-.22-.32-.51-.55-.88-.71-.37-.16-.79-.24-1.25-.24-.68,0-1.25.15-1.7.44-.46.29-.77.68-.94,1.15l.83.51c.14-.42.37-.73.67-.92.31-.19.68-.29,1.12-.29.47,0,.83.13,1.08.39.25.26.38.62.38,1.1v1.76ZM91.01,35.16v-3.4c0-.53.1-.95.29-1.27.2-.32.44-.56.73-.71.29-.15.58-.22.86-.22.42,0,.78.13,1.07.38.29.25.43.67.43,1.25v3.97h1.02v-3.48c0-.46.09-.84.26-1.16.17-.31.4-.55.69-.71.29-.16.6-.24.93-.24.42,0,.78.13,1.07.38.29.25.43.67.43,1.25v3.97h1.02v-4.07c0-.56-.12-1.02-.36-1.37-.24-.36-.54-.62-.91-.79-.37-.17-.76-.26-1.16-.26-.26,0-.54.04-.83.13-.29.09-.56.22-.81.41-.25.18-.44.42-.57.71-.21-.42-.52-.74-.92-.94-.4-.2-.82-.31-1.27-.31-.39,0-.77.09-1.14.27-.37.18-.67.46-.9.85l-.06-.99h-.89v6.36h1.02ZM85.82,35.16v-3.43c0-.47.09-.87.27-1.18.18-.31.4-.54.67-.69.27-.15.53-.23.8-.23.2,0,.36,0,.47.03.11.02.21.04.3.08l.18-.93c-.09-.05-.21-.08-.34-.1-.13-.02-.25-.03-.36-.03-.49,0-.91.1-1.25.29-.34.2-.6.49-.78.88l-.14-1.04h-.83v6.36h1.02ZM81.25,35.11c.33-.11.63-.28.88-.49s.46-.46.62-.75l-.8-.47c-.18.3-.41.55-.71.73-.29.18-.67.27-1.14.27-.43,0-.8-.09-1.11-.29-.31-.19-.55-.47-.72-.83-.17-.36-.25-.8-.25-1.3s.08-.94.25-1.3c.17-.36.4-.64.7-.83s.66-.29,1.08-.29c.54,0,.98.17,1.32.5.33.33.5.8.5,1.41l.52-.1h-4.69v.9h5.14c.02-.09.03-.2.04-.32,0-.12.01-.25.01-.39,0-.54-.11-1.03-.33-1.47-.22-.44-.54-.78-.96-1.04-.42-.25-.93-.38-1.52-.38s-1.11.13-1.56.4-.82.64-1.08,1.14c-.26.5-.4,1.09-.4,1.77s.13,1.28.4,1.78c.26.5.63.88,1.1,1.14.47.26,1.01.39,1.61.39.42,0,.79-.06,1.13-.17M73.6,34.85c.48-.29.82-.7,1.04-1.22l-.22-.04.05,1.56h.8v-4.23h-3.6v.95h2.67v.29c0,.37-.06.68-.19.95-.13.27-.3.5-.53.67-.23.18-.49.31-.79.4-.3.09-.62.13-.97.13-.62,0-1.14-.13-1.57-.4-.43-.27-.75-.65-.97-1.16-.22-.5-.33-1.11-.33-1.81s.12-1.31.38-1.81c.25-.5.59-.89,1.03-1.16.44-.27.94-.4,1.51-.4s1.08.12,1.48.38c.4.25.7.62.88,1.1l.93-.51c-.32-.65-.74-1.14-1.26-1.45-.52-.31-1.2-.47-2.03-.47-.78,0-1.47.18-2.07.53-.6.35-1.07.85-1.41,1.5-.34.64-.5,1.41-.5,2.3s.16,1.66.48,2.3c.32.65.77,1.14,1.35,1.5.58.35,1.27.53,2.07.53.7,0,1.29-.14,1.77-.43"/><path class="uuid-9e321d7f-c7e1-4e34-a971-16d4c9a6dc68" d="M170.17,19.85c.34-.11.63-.28.88-.49.25-.21.46-.46.62-.75l-.8-.47c-.18.31-.41.55-.71.73-.29.18-.67.27-1.14.27-.43,0-.8-.09-1.11-.29-.31-.19-.55-.47-.72-.83-.17-.37-.26-.8-.26-1.3s.08-.94.25-1.3c.17-.36.4-.64.7-.83.3-.19.66-.29,1.08-.29.54,0,.98.17,1.32.5.34.33.5.8.5,1.41l.52-.1h-4.69v.9h5.14c.02-.09.03-.2.04-.32,0-.12.01-.25.01-.39,0-.54-.11-1.03-.33-1.47-.22-.44-.54-.78-.96-1.04-.42-.26-.93-.38-1.52-.38s-1.11.13-1.56.4-.82.64-1.08,1.14c-.26.5-.4,1.09-.4,1.77s.13,1.28.4,1.78c.26.5.63.88,1.1,1.14.47.26,1.01.39,1.61.39.42,0,.79-.06,1.12-.17M159.53,19.89v-3.37c0-.54.1-.98.3-1.3.2-.33.45-.56.76-.71.31-.14.61-.22.92-.22.44,0,.81.14,1.11.41.3.28.45.77.45,1.47v3.71h1.02v-4.07c0-.55-.11-1-.34-1.36s-.52-.62-.9-.79c-.37-.17-.79-.26-1.25-.26-.43,0-.83.09-1.2.26-.36.17-.66.45-.88.83v-3.88h-1.02v9.28h1.02ZM152.39,14.41h4.6v-.88h-4.6v.88ZM153.66,12.01v6.31c0,.41.1.74.26.99.17.25.39.43.67.55.28.11.58.17.9.17.35,0,.65-.05.92-.15.27-.1.5-.24.69-.42l-.36-.85c-.14.14-.3.26-.48.34-.18.09-.39.13-.64.13-.28,0-.51-.08-.69-.23-.18-.15-.27-.39-.27-.7v-6.41l-1.02.28ZM143.83,14.41h4.41v-.88h-4.41v.88ZM146.27,10.68c-.26.09-.48.22-.65.4-.17.17-.3.37-.39.61-.08.24-.13.5-.13.78v7.43h1.02v-7.33c0-.38.1-.66.3-.83.2-.17.49-.26.85-.26.14,0,.28.02.39.04.12.03.23.08.33.15l.27-.83c-.11-.09-.26-.17-.46-.22-.2-.05-.4-.08-.62-.08-.35,0-.65.05-.92.14M140.83,14.58c.31.2.54.47.71.83.17.36.25.79.25,1.3s-.08.93-.25,1.3c-.17.36-.4.64-.71.84-.3.2-.67.29-1.11.29s-.8-.1-1.11-.29c-.3-.2-.54-.48-.71-.84-.17-.37-.25-.8-.25-1.3s.08-.94.25-1.3c.17-.36.4-.64.71-.83.31-.2.67-.29,1.11-.29s.8.1,1.11.29M138.13,13.8c-.47.26-.83.64-1.09,1.14s-.39,1.09-.39,1.77.13,1.28.39,1.78c.26.5.63.88,1.09,1.14s1,.39,1.59.39,1.13-.13,1.6-.39c.46-.26.82-.64,1.09-1.14.26-.5.39-1.09.39-1.78s-.13-1.28-.39-1.77c-.26-.5-.63-.88-1.09-1.14-.46-.26-.99-.4-1.6-.4s-1.12.13-1.59.4M129.66,19.78c.38-.16.68-.39.89-.69.21-.3.32-.65.32-1.05s-.12-.72-.36-.99c-.24-.27-.65-.47-1.25-.58l-1.59-.33c-.35-.07-.58-.18-.71-.34-.13-.16-.19-.33-.19-.52s.06-.35.17-.5c.12-.15.28-.27.5-.35.22-.08.48-.13.78-.13.35,0,.68.09,1,.26.32.17.56.45.7.82l.85-.56c-.21-.45-.53-.8-.97-1.04-.43-.25-.96-.37-1.59-.37-.5,0-.94.09-1.3.26-.37.17-.65.4-.85.69-.2.29-.3.61-.3.95,0,.44.13.81.4,1.11.27.3.71.51,1.33.64l1.53.32c.32.07.54.18.65.32.11.15.17.31.17.49,0,.28-.13.51-.38.68-.25.17-.61.26-1.06.26-.51,0-.94-.11-1.3-.33-.36-.22-.63-.52-.82-.91l-.86.62c.28.48.68.86,1.2,1.12.52.26,1.09.39,1.71.39.5,0,.94-.08,1.32-.24M122.5,19.85c.33-.11.63-.28.88-.49.25-.21.46-.46.62-.75l-.8-.47c-.18.31-.41.55-.71.73-.29.18-.67.27-1.14.27-.43,0-.8-.09-1.11-.29-.31-.19-.55-.47-.72-.83-.17-.37-.25-.8-.25-1.3s.08-.94.25-1.3c.17-.36.4-.64.7-.83.3-.19.66-.29,1.08-.29.54,0,.98.17,1.32.5.34.33.5.8.5,1.41l.52-.1h-4.69v.9h5.14c.02-.09.03-.2.04-.32,0-.12.01-.25.01-.39,0-.54-.11-1.03-.33-1.47-.22-.44-.54-.78-.96-1.04-.42-.26-.93-.38-1.52-.38s-1.11.13-1.56.4-.82.64-1.08,1.14c-.26.5-.4,1.09-.4,1.77s.13,1.28.4,1.78c.26.5.63.88,1.1,1.14.47.26,1.01.39,1.61.39.42,0,.79-.06,1.13-.17M115.33,19.89h1.02v-6.36h-1.02v6.36ZM116.39,12.1c.14-.14.21-.33.21-.55s-.07-.41-.21-.55c-.14-.14-.32-.21-.55-.21s-.41.07-.55.21-.21.32-.21.55.07.41.21.55.32.21.55.21.41-.07.55-.21M111.16,19.89v-3.43c0-.48.09-.87.27-1.18.18-.31.4-.54.67-.69.27-.15.53-.23.79-.23.2,0,.36,0,.47.03.11.02.21.04.3.08l.18-.93c-.09-.05-.21-.08-.34-.1-.13-.02-.25-.03-.36-.03-.49,0-.91.1-1.25.29-.34.2-.6.49-.78.88l-.14-1.04h-.83v6.36h1.02ZM106.25,14.58c.3.2.54.47.71.83.16.36.25.79.25,1.3s-.08.93-.25,1.3c-.17.36-.4.64-.71.84-.31.2-.67.29-1.11.29s-.8-.1-1.11-.29c-.31-.2-.54-.48-.71-.84-.17-.37-.25-.8-.25-1.3s.08-.94.25-1.3c.16-.36.4-.64.71-.83.3-.2.67-.29,1.11-.29s.8.1,1.11.29M103.55,13.8c-.47.26-.83.64-1.09,1.14s-.39,1.09-.39,1.77.13,1.28.39,1.78c.26.5.63.88,1.09,1.14s1,.39,1.59.39,1.13-.13,1.6-.39.83-.64,1.09-1.14c.26-.5.39-1.09.39-1.78s-.13-1.28-.39-1.77-.63-.88-1.09-1.14-.99-.4-1.6-.4-1.12.13-1.59.4M96.39,14.41h4.6v-.88h-4.6v.88ZM97.66,12.01v6.31c0,.41.1.74.26.99s.39.43.67.55c.28.11.58.17.9.17.35,0,.66-.05.92-.15.27-.1.5-.24.69-.42l-.36-.85c-.14.14-.3.26-.48.34-.18.09-.39.13-.64.13-.28,0-.51-.08-.69-.23-.18-.15-.27-.39-.27-.7v-6.41l-1.02.28ZM94.09,19.78c.38-.16.68-.39.89-.69.21-.3.32-.65.32-1.05s-.12-.72-.36-.99c-.24-.27-.65-.47-1.25-.58l-1.59-.33c-.35-.07-.58-.18-.71-.34-.13-.16-.19-.33-.19-.52s.06-.35.17-.5c.11-.15.28-.27.5-.35.22-.08.48-.13.78-.13.35,0,.68.09,1.01.26.32.17.55.45.7.82l.85-.56c-.21-.45-.53-.8-.97-1.04-.43-.25-.96-.37-1.59-.37-.5,0-.93.09-1.3.26-.37.17-.65.4-.85.69-.2.29-.3.61-.3.95,0,.44.13.81.4,1.11s.71.51,1.33.64l1.53.32c.32.07.54.18.65.32.12.15.17.31.17.49,0,.28-.13.51-.38.68-.25.17-.61.26-1.05.26-.51,0-.94-.11-1.3-.33-.36-.22-.63-.52-.82-.91l-.86.62c.28.48.68.86,1.2,1.12.52.26,1.09.39,1.71.39.5,0,.94-.08,1.32-.24M87.07,19.62c.46-1,.69-2.1.69-3.3s-.23-2.3-.69-3.31c-.46-1.01-1.14-1.9-2.04-2.67l-.59.59c.56.51,1.01,1.04,1.34,1.61.33.56.57,1.16.71,1.78.14.62.22,1.29.22,2s-.07,1.37-.22,2c-.14.63-.38,1.22-.71,1.78-.33.56-.78,1.1-1.34,1.61l.59.58c.9-.78,1.58-1.67,2.04-2.68M81.88,19.89h1.02v-6.36h-1.02v6.36ZM82.94,12.1c.14-.14.21-.33.21-.55s-.07-.41-.21-.55c-.14-.14-.33-.21-.55-.21s-.41.07-.55.21c-.14.14-.21.32-.21.55s.07.41.21.55c.14.14.32.21.55.21s.41-.07.55-.21M73.27,16.12h5.51v-.95h-5.51v.95ZM72.73,19.89h1.02v-8.39h-1.02v8.39ZM78.3,19.89h1.02v-8.39h-1.02v8.39ZM68.53,13.01c-.46,1.01-.69,2.11-.69,3.31s.23,2.3.69,3.3c.46,1,1.14,1.9,2.04,2.68l.58-.58c-.56-.52-1.01-1.06-1.33-1.61-.33-.56-.57-1.15-.71-1.78-.14-.63-.22-1.29-.22-2s.07-1.38.22-2c.14-.62.38-1.22.71-1.78.33-.56.78-1.1,1.33-1.61l-.58-.59c-.9.77-1.58,1.66-2.04,2.67"/></svg>