<?xml version="1.0" encoding="UTF-8" standalone="no"?>
<svg
   id="Layer_1"
   viewBox="0 0 396.84996 147.54"
   version="1.1"
   sodipodi:docname="wag-inverse.svg"
   width="396.84998"
   height="147.53999"
   inkscape:version="1.3.2 (091e20e, 2023-11-25, custom)"
   xmlns:inkscape="http://www.inkscape.org/namespaces/inkscape"
   xmlns:sodipodi="http://sodipodi.sourceforge.net/DTD/sodipodi-0.dtd"
   xmlns="http://www.w3.org/2000/svg"
   xmlns:svg="http://www.w3.org/2000/svg">
  <sodipodi:namedview
     id="namedview25"
     pagecolor="#ffffff"
     bordercolor="#666666"
     borderopacity="1.0"
     inkscape:showpageshadow="2"
     inkscape:pageopacity="0.0"
     inkscape:pagecheckerboard="0"
     inkscape:deskcolor="#d1d1d1"
     showgrid="false"
     inkscape:zoom="2.8833489"
     inkscape:cx="198.38043"
     inkscape:cy="76.126756"
     inkscape:window-width="1920"
     inkscape:window-height="1171"
     inkscape:window-x="-9"
     inkscape:window-y="-9"
     inkscape:window-maximized="1"
     inkscape:current-layer="Layer_1" />
  <defs
     id="defs1">
    <style
       id="style1">
      .cls-1 {
        fill: #231f20;
      }

      .cls-2 {
        fill: none;
        stroke: #231f20;
        stroke-miterlimit: 10;
        stroke-width: .5px;
      }

      .cls-3 {
        fill: #fff;
      }
    </style>
  </defs>
  <g
     id="g26"
     transform="translate(-14.17,-23.36)">
    <rect
       class="cls-3"
       x="288.92999"
       y="23.360001"
       width="122.09"
       height="146.64"
       id="rect1" />
    <g
       id="g2">
      <path
         class="cls-1"
         d="m 363.75,121.56 c 0.76,0.58 1.49,1.08 2.14,1.65 4.92,4.34 7.09,9.72 5.46,16.16 -1.59,6.31 -5.75,10.34 -12.12,11.91 -1.2,0.29 -2.48,0.35 -3.73,0.35 -15.49,0.02 -30.99,0.02 -46.48,0.01 -1.83,0 -1.96,-0.12 -1.96,-1.94 0,-17.6 0,-35.2 0,-52.8 0,-1.74 0.14,-1.87 1.91,-1.88 1.11,0 2.21,0 3.32,0 0.77,0 1.16,0.38 1.16,1.15 0,0.48 0.01,0.96 0.01,1.44 0,15.06 0,30.11 0,45.17 0,0.44 0.03,0.89 0,1.33 -0.06,0.86 0.34,1.18 1.18,1.17 1.99,-0.03 3.98,0 5.98,0 2.47,0 4.94,-0.04 7.41,0.02 1.07,0.02 1.39,-0.39 1.39,-1.43 -0.03,-7.49 -0.02,-14.98 -0.01,-22.47 0,-2.05 0.14,-2.18 2.22,-2.18 7.38,0 14.76,0.02 22.14,-0.01 4.11,-0.02 7.84,-3.57 8.41,-7.87 0.56,-4.27 -2.12,-8.52 -6.14,-9.59 -0.98,-0.26 -2.04,-0.35 -3.06,-0.36 -5.9,-0.03 -11.81,-0.01 -17.71,-0.02 -1.57,0 -1.81,-0.24 -1.82,-1.77 0,-0.96 0,-1.92 0,-2.88 0.01,-1.48 0.19,-1.68 1.65,-1.69 3.73,-0.01 7.45,0 11.18,0 2.51,0 5.02,-0.05 7.53,0 6.42,0.14 11.13,3.17 13.73,8.94 2.56,5.68 1.5,11.09 -2.36,15.96 -0.43,0.54 -0.91,1.04 -1.43,1.63 z m -16.76,4.12 c -3.24,0 -6.49,0.05 -9.73,-0.03 -1.15,-0.03 -1.45,0.39 -1.44,1.47 0.04,5.53 0.01,11.06 0.02,16.59 0,1.5 0.05,1.55 1.56,1.55 5.9,0 11.8,-0.13 17.7,0.04 6.82,0.19 10.85,-6.3 10.02,-11.38 -0.83,-5.11 -4.94,-8.44 -9.28,-8.28 -2.95,0.11 -5.9,0.02 -8.85,0.02 z"
         id="path1" />
      <path
         class="cls-1"
         d="m 391.6,149.96 c 0.09,0.69 -0.27,1.17 -1.13,1.29 -1.24,0.18 -2.47,0.4 -3.71,0.58 -0.95,0.14 -1.41,-0.26 -1.55,-1.23 -0.92,-6.15 -1.89,-12.3 -2.83,-18.45 -1.15,-7.5 -2.29,-15 -3.44,-22.49 -0.61,-4 -1.24,-8 -1.84,-12.01 -0.19,-1.26 0.15,-1.68 1.4,-1.88 0.98,-0.16 1.96,-0.31 2.95,-0.45 1.51,-0.2 1.87,0.05 2.09,1.52 0.55,3.53 1.07,7.06 1.61,10.59 1.36,8.92 2.73,17.84 4.1,26.75 0.76,4.99 1.53,9.97 2.29,14.96 0.03,0.22 0.04,0.44 0.06,0.82 z"
         id="path2" />
    </g>
    <g
       id="g5">
      <path
         class="cls-1"
         d="m 323.92,45.69 3.75,10.65 4.45,-11.38 4.22,11.38 4.15,-10.65 h 1.75 l -5.96,14.95 -4.17,-11.38 -4.47,11.38 -5.45,-14.95 h 1.75 z"
         id="path3" />
      <path
         class="cls-1"
         d="m 353.11,55.89 h -6.05 l -1.7,4 h -1.75 l 6.54,-14.89 6.37,14.89 h -1.75 z m -0.62,-1.49 -2.39,-5.69 -2.43,5.69 h 4.81 z"
         id="path4" />
      <path
         class="cls-1"
         d="m 367.56,52.76 h 5.92 v 0.34 c 0,1.58 -0.47,3.28 -1.36,4.49 -0.43,0.58 -2.02,2.56 -5.28,2.56 -4.22,0 -7.37,-3.22 -7.37,-7.35 0,-4.13 3.17,-7.35 7.41,-7.35 1.36,0 2.96,0.34 4.35,1.41 0.64,0.49 1.24,1.13 1.64,1.68 l -1.17,1.06 c -0.4,-0.58 -0.87,-1.09 -1.34,-1.47 -0.68,-0.55 -1.75,-1.19 -3.45,-1.19 -3.43,0 -5.82,2.58 -5.82,5.88 0,3.88 3.09,5.84 5.77,5.84 1.9,0 3.54,-0.96 4.34,-2.39 0.26,-0.45 0.53,-1.13 0.58,-2.02 h -4.22 z"
         id="path5" />
    </g>
    <line
       class="cls-2"
       x1="307.07001"
       y1="75.300003"
       x2="391.62"
       y2="75.300003"
       id="line5" />
    <g
       id="g6">
      <polygon
         class="cls-3"
         points="141.5,23.36 14.17,23.36 14.17,37.28 121.7,37.28 75.1,170.67 89.87,170.67 "
         id="polygon5" />
      <path
         class="cls-3"
         d="m 151.29,170.67 c -1.6,-7.46 -2.46,-15.19 -2.46,-23.13 0,-60.83 49.49,-110.32 110.32,-110.32 4.49,0 8.91,0.3 13.27,0.83 V 24.09 c -4.36,-0.47 -8.79,-0.72 -13.27,-0.72 -68.47,0 -124.18,55.71 -124.18,124.18 0,7.9 0.77,15.63 2.19,23.13 h 14.12 z"
         id="path6" />
    </g>
    <g
       id="g25">
      <path
         class="cls-3"
         d="m 198.14,142.45 c 0.61,0 1.78,0 2.67,0.69 0.64,0.49 1.01,1.34 1.01,2.26 0,1.41 -0.93,1.98 -1.23,2.14 0.72,0.11 1.15,0.43 1.42,0.69 0.65,0.62 0.79,1.47 0.79,2.04 0,0.64 -0.18,1.54 -0.93,2.21 -0.82,0.72 -1.82,0.88 -2.76,0.88 h -3.66 v -10.91 h 2.7 z m -0.57,4.53 h 0.6 c 0.33,0 1.65,-0.03 1.65,-1.42 0,-1 -0.77,-1.37 -1.64,-1.37 h -0.62 v 2.8 z m 0,4.65 h 0.92 c 0.39,0 0.98,-0.02 1.46,-0.29 0.52,-0.31 0.67,-0.83 0.67,-1.26 0,-0.34 -0.11,-0.93 -0.8,-1.24 -0.46,-0.21 -1,-0.21 -1.46,-0.21 h -0.79 v 3.01 z"
         id="path7" />
      <path
         class="cls-3"
         d="m 208.25,142.45 c 1.5,0 2.27,0.39 2.78,0.82 0.83,0.7 1.08,1.64 1.08,2.45 0,1.06 -0.43,2 -1.28,2.57 -0.28,0.2 -0.67,0.38 -1.19,0.47 l 3.4,4.6 h -2.65 l -2.91,-4.38 h -0.26 v 4.38 h -2.13 v -10.91 z m -1.04,5.03 h 0.61 c 0.41,0 2.09,-0.05 2.09,-1.65 0,-1.6 -1.67,-1.64 -2.06,-1.64 h -0.64 z"
         id="path8" />
      <path
         class="cls-3"
         d="m 216.93,142.45 v 10.91 h -2.13 v -10.91 z"
         id="path9" />
      <path
         class="cls-3"
         d="m 222.59,142.45 c 1.52,0 2.85,0.16 4.06,1.06 1.32,1 2.09,2.58 2.09,4.4 0,1.82 -0.75,3.39 -2.19,4.4 -1.28,0.9 -2.47,1.05 -3.99,1.05 h -2.81 v -10.91 h 2.85 z m -0.72,9.08 h 0.65 c 0.54,0 1.72,-0.03 2.67,-0.72 0.87,-0.62 1.36,-1.73 1.36,-2.9 0,-1.17 -0.47,-2.26 -1.34,-2.91 -0.88,-0.65 -1.96,-0.72 -2.68,-0.72 h -0.65 v 7.25 z"
         id="path10" />
      <path
         class="cls-3"
         d="m 236.55,147.52 h 5.01 v 0.13 c 0,0.74 -0.1,3.03 -1.6,4.51 -1.13,1.13 -2.52,1.44 -3.88,1.44 -1.36,0 -2.76,-0.28 -3.96,-1.47 -0.38,-0.38 -1.62,-1.75 -1.62,-4.2 0,-2.11 0.95,-3.4 1.6,-4.06 0.82,-0.83 2.19,-1.67 4.3,-1.67 0.82,0 1.68,0.13 2.52,0.57 0.7,0.36 1.47,1.01 2.04,2 l -1.85,1 c -0.38,-0.74 -0.93,-1.11 -1.28,-1.29 -0.46,-0.23 -1.03,-0.34 -1.54,-0.34 -0.87,0 -1.85,0.31 -2.52,0.96 -0.62,0.61 -1.1,1.65 -1.1,2.88 0,1.46 0.62,2.32 1.08,2.76 0.49,0.47 1.26,0.93 2.42,0.93 0.72,0 1.54,-0.2 2.14,-0.65 0.43,-0.33 0.85,-0.88 1.03,-1.67 h -2.81 v -1.83 z"
         id="path11" />
      <path
         class="cls-3"
         d="m 245.97,142.45 v 10.91 h -2.13 v -10.91 z"
         id="path12" />
      <path
         class="cls-3"
         d="m 248.78,153.36 v -10.91 h 1.47 l 6.64,7.28 v -7.28 h 2.13 v 10.91 h -1.47 l -6.64,-7.3 v 7.3 z"
         id="path13" />
      <path
         class="cls-3"
         d="m 267.36,147.52 h 5.01 v 0.13 c 0,0.74 -0.1,3.03 -1.6,4.51 -1.13,1.13 -2.52,1.44 -3.88,1.44 -1.36,0 -2.76,-0.28 -3.96,-1.47 -0.38,-0.38 -1.62,-1.75 -1.62,-4.2 0,-2.11 0.95,-3.4 1.6,-4.06 0.82,-0.83 2.19,-1.67 4.3,-1.67 0.82,0 1.68,0.13 2.52,0.57 0.7,0.36 1.47,1.01 2.04,2 l -1.85,1 c -0.38,-0.74 -0.93,-1.11 -1.28,-1.29 -0.46,-0.23 -1.03,-0.34 -1.54,-0.34 -0.87,0 -1.85,0.31 -2.52,0.96 -0.62,0.61 -1.1,1.65 -1.1,2.88 0,1.46 0.62,2.32 1.08,2.76 0.49,0.47 1.26,0.93 2.42,0.93 0.72,0 1.54,-0.2 2.14,-0.65 0.43,-0.33 0.85,-0.88 1.03,-1.67 h -2.81 v -1.83 z"
         id="path14" />
      <path
         class="cls-3"
         d="m 168.95,164.81 h 5 v 0.13 c 0,0.74 -0.1,3.03 -1.6,4.51 -1.13,1.13 -2.52,1.44 -3.88,1.44 -1.36,0 -2.76,-0.28 -3.96,-1.47 -0.38,-0.38 -1.62,-1.75 -1.62,-4.2 0,-2.11 0.95,-3.4 1.6,-4.06 0.82,-0.83 2.19,-1.67 4.3,-1.67 0.82,0 1.68,0.13 2.52,0.57 0.7,0.36 1.47,1.01 2.04,2 l -1.85,1 c -0.38,-0.74 -0.93,-1.11 -1.28,-1.29 -0.46,-0.23 -1.03,-0.34 -1.54,-0.34 -0.87,0 -1.85,0.31 -2.52,0.97 -0.62,0.6 -1.1,1.65 -1.1,2.88 0,1.46 0.62,2.32 1.08,2.76 0.49,0.47 1.26,0.93 2.42,0.93 0.72,0 1.54,-0.2 2.14,-0.65 0.43,-0.33 0.85,-0.88 1.03,-1.67 h -2.81 v -1.83 z"
         id="path15" />
      <path
         class="cls-3"
         d="m 182.3,161.57 h -3.93 v 2.44 h 3.76 v 1.83 h -3.76 v 2.98 h 3.93 v 1.83 h -6.05 v -10.91 h 6.05 z"
         id="path16" />
      <path
         class="cls-3"
         d="m 184.68,170.65 v -10.91 h 1.47 l 6.64,7.28 v -7.28 h 2.13 v 10.91 h -1.47 l -6.64,-7.3 v 7.3 z"
         id="path17" />
      <path
         class="cls-3"
         d="m 203.78,161.57 h -3.93 v 2.44 h 3.76 v 1.83 h -3.76 v 2.98 h 3.93 v 1.83 h -6.05 v -10.91 h 6.05 z"
         id="path18" />
      <path
         class="cls-3"
         d="m 209.33,159.74 c 1.5,0 2.27,0.39 2.78,0.82 0.83,0.7 1.08,1.64 1.08,2.45 0,1.06 -0.43,2 -1.28,2.57 -0.28,0.2 -0.67,0.38 -1.19,0.47 l 3.4,4.6 h -2.65 l -2.91,-4.38 h -0.26 v 4.38 h -2.13 v -10.91 z m -1.04,5.02 h 0.61 c 0.41,0 2.09,-0.05 2.09,-1.65 0,-1.6 -1.67,-1.64 -2.06,-1.64 h -0.64 z"
         id="path19" />
      <path
         class="cls-3"
         d="m 222.34,168.36 h -4.4 l -0.96,2.29 h -2.31 l 4.7,-10.91 h 1.67 l 4.56,10.91 h -2.29 l -0.96,-2.29 z m -0.62,-1.74 -1.55,-3.93 -1.55,3.93 h 3.11 z"
         id="path20" />
      <path
         class="cls-3"
         d="m 230.08,161.57 v 9.08 h -2.13 v -9.08 h -2.45 v -1.83 h 7.03 v 1.83 z"
         id="path21" />
      <path
         class="cls-3"
         d="m 236.32,159.74 v 10.91 h -2.13 v -10.91 z"
         id="path22" />
      <path
         class="cls-3"
         d="m 250.26,165.2 c 0,3.32 -2.39,5.69 -5.82,5.69 -3.43,0 -5.82,-2.37 -5.82,-5.69 0,-3.32 2.39,-5.71 5.82,-5.71 3.43,0 5.82,2.39 5.82,5.71 z m -2.19,0 c 0,-2.21 -1.5,-3.78 -3.63,-3.78 -2.13,0 -3.63,1.57 -3.63,3.78 0,2.21 1.5,3.76 3.63,3.76 2.13,0 3.63,-1.55 3.63,-3.76 z"
         id="path23" />
      <path
         class="cls-3"
         d="m 252.54,170.65 v -10.91 h 1.47 l 6.64,7.28 v -7.28 h 2.13 v 10.91 h -1.47 l -6.64,-7.3 v 7.3 z"
         id="path24" />
      <path
         class="cls-3"
         d="m 270.96,162.22 c -0.64,-0.85 -1.39,-0.93 -1.78,-0.93 -1.14,0 -1.5,0.72 -1.5,1.28 0,0.26 0.08,0.51 0.34,0.74 0.26,0.25 0.62,0.38 1.31,0.62 0.85,0.29 1.65,0.59 2.21,1.1 0.49,0.44 0.93,1.18 0.93,2.29 0,2.13 -1.54,3.58 -3.79,3.58 -2.01,0 -3.19,-1.23 -3.76,-2.06 l 1.39,-1.32 c 0.52,1.06 1.52,1.46 2.29,1.46 0.97,0 1.68,-0.59 1.68,-1.5 0,-0.39 -0.13,-0.7 -0.42,-0.98 -0.41,-0.38 -1.06,-0.59 -1.68,-0.8 -0.57,-0.2 -1.26,-0.46 -1.82,-0.95 -0.36,-0.31 -0.87,-0.92 -0.87,-2.03 0,-1.6 1.08,-3.21 3.5,-3.21 0.69,0 1.98,0.13 3.09,1.28 l -1.11,1.46 z"
         id="path25" />
    </g>
  </g>
</svg>
